# xmcd
#
# Track frame offsets:
#	150
#	12894
#	22802
#	35508
#	45390
#	60215
#	70975
#	85419
#	97741
#	107301
#	116265
#	133136
#	139805
#	152118
#	164050
#
# Disc length: 2337 seconds
#
# Revision: 0
# Processed by: cddbd v1.5.2PL0 Copyright (c) Steve Scherf et al.
# Submitted via: EasyCDDAExtractor 12.0.1.1
#
DISCID=b4091f0f
DTITLE=Various Artist - Country Jukebox Disc 4
DYEAR=1900
DGENRE=Country
TTITLE0=Faron Young - There Goes My Everything
TTITLE1=Willie Nelson - The Healing Hands Of Time
TTITLE2=Jim Reeves - How's The World Treating You
TTITLE3=Don Williams - Take My Hand For A While
TTITLE4=Boxcar Willie - The Wayward Wind
TTITLE5=Porter Wagoner - Enough To Make A Grown Man Cry
TTITLE6=Johny Paycheck - Green Green Grass Of Home
TTITLE7=Johny Russell - Kaw Liga
TTITLE8=Freddy Fender - But I Do
TTITLE9=Boxcar Willie - Mama Tried
TTITLE10=Carl Perkins - Sweeter Than Candy
TTITLE11=Waylon Jennings - It's So Easy
TTITLE12=Kenny Rogers - Reuben James
TTITLE13=Stonewall Jackson - I love You Because
TTITLE14=Faron Young - It Is Really Over
EXTD=
EXTT0=
EXTT1=
EXTT2=
EXTT3=
EXTT4=
EXTT5=
EXTT6=
EXTT7=
EXTT8=
EXTT9=
EXTT10=
EXTT11=
EXTT12=
EXTT13=
EXTT14=
PLAYORDER=
